HIERARCHY
ROOT Hips
{
    OFFSET 0.0 0.0 0.0
    CHANNELS 6 Xposition Yposition Zposition Zrotation Xrotation Yrotation
    JOINT LeftHipJoint
    {
        OFFSET 0.1 0.0 0.0
        CHANNELS 3 Zrotation Xrotation Yrotation
        JOINT LeftUpLeg
        {
            OFFSET 123.35771596599244 0.0 0.0
            CHANNELS 3 Zrotation Xrotation Yrotation
            JOINT LeftLeg
            {
                OFFSET 0.0 0.0 -415.0289933787677
                CHANNELS 3 Zrotation Xrotation Yrotation
                JOINT LeftFoot
                {
                    OFFSET 0.0 0.0 -406.1657106787402
                    CHANNELS 3 Zrotation Xrotation Yrotation
                    End Site
                    {
                        OFFSET 0.0 -0.1 0.0
                    }
                }
            }
        }
    }
    JOINT LowerBack
    {
        OFFSET 0.0 0.0 0.1
        CHANNELS 3 Zrotation Xrotation Yrotation
        JOINT Spine
        {
            OFFSET 0.0 0.0 219.5233380395291
            CHANNELS 3 Zrotation Xrotation Yrotation
            JOINT Spine1
            {
                OFFSET 0.0 0.0 251.80363927604571
                CHANNELS 3 Zrotation Xrotation Yrotation
                JOINT LeftShoulder
                {
                    OFFSET 0.1 0.0 0.0
                    CHANNELS 3 Zrotation Xrotation Yrotation
                    JOINT LeftArm
                    {
                        OFFSET 142.3004812630943 0.0 0.0
                        CHANNELS 3 Zrotation Xrotation Yrotation
                        JOINT LeftForeArm
                        {
                            OFFSET 261.69864421971977 0.0 0.0
                            CHANNELS 3 Zrotation Xrotation Yrotation
                            JOINT LeftHand
                            {
                                OFFSET 246.832377315739 0.0 0.0
                                CHANNELS 3 Zrotation Xrotation Yrotation
                                End Site
                                {
                                    OFFSET 0.1 0.0 0.0
                                }
                            }
                        }
                    }
                }
                JOINT Neck
                {
                    OFFSET 0.0 0.0 0.1
                    CHANNELS 3 Zrotation Xrotation Yrotation
                    JOINT Neck1
                    {
                        OFFSET 0.0 0.0 106.82571775733776
                        CHANNELS 3 Zrotation Xrotation Yrotation
                        End Site
                        {
                            OFFSET 0.0 0.0 116.87416798715448
                        }
                    }
                }
                JOINT RightShoulder
                {
                    OFFSET -0.1 0.0 0.0
                    CHANNELS 3 Zrotation Xrotation Yrotation
                    JOINT RightArm
                    {
                        OFFSET -142.3004812630943 0.0 0.0
                        CHANNELS 3 Zrotation Xrotation Yrotation
                        JOINT RightForeArm
                        {
                            OFFSET -261.69864421971977 0.0 0.0
                            CHANNELS 3 Zrotation Xrotation Yrotation
                            JOINT RightHand
                            {
                                OFFSET -246.832377315739 0.0 0.0
                                CHANNELS 3 Zrotation Xrotation Yrotation
                                End Site
                                {
                                    OFFSET -0.1 0.0 0.0
                                }
                            }
                        }
                    }
                }
            }
        }
    }
    JOINT RightHipJoint
    {
        OFFSET -0.1 0.0 0.0
        CHANNELS 3 Zrotation Xrotation Yrotation
        JOINT RightUpLeg
        {
            OFFSET -123.35771596599244 0.0 0.0
            CHANNELS 3 Zrotation Xrotation Yrotation
            JOINT RightLeg
            {
                OFFSET 0.0 0.0 -415.0289933787677
                CHANNELS 3 Zrotation Xrotation Yrotation
                JOINT RightFoot
                {
                    OFFSET 0.0 0.0 -406.1657106787402
                    CHANNELS 3 Zrotation Xrotation Yrotation
                    End Site
                    {
                        OFFSET 0.0 -0.1 0.0
                    }
                }
            }
        }
    }
}
MOTION
Frames: 5
Frame Time: 0.03333333333333333
0.0 0.0 823.7964014800002 29.409810069830517 3.239094092478925 3.5286023900202754 -3.1805546814635168e-15 2.2069531490250793e-32 -7.951386703658792e-16 -0.18025334785512429 -15.23664050686369 -0.5667270972994612 0.055478934343914106 24.05126394823195 -0.3748855750783312 0.0 0.0 -7.951386703658792e-16 -3.1805546814635168e-15 2.2069531490250793e-32 -7.951386703658792e-16 0.017175414547859168 1.471865156342828 0.9862811431619238 -1.056670478832161 -3.9113691469457425e-16 -6.993827672253518e-16 0.0 0.0 0.0 -44.31901279661881 5.750345540244946 74.02838826983401 -22.861501085277673 -6.707686354882226e-15 1.077434748671921e-15 0.0 0.0 -2.435112177995505e-15 0.0 0.0 0.0 -8.441535275476877 -6.171205875886603 -6.524981496568727 0.0 0.0 0.0 27.65325334832283 3.1587198148725877 -73.816094572425 33.829545651557595 -3.3097823614940488e-15 1.0979635958567855e-14 6.361109362927035e-15 8.827812596100317e-32 1.5902773407317588e-15 -3.1805546814635168e-15 2.2069531490250793e-32 -7.951386703658792e-16 -0.14625721158879634 -12.200735663207622 -3.252596029676986 -1.0675726110480537 22.56666651483313 0.37855418501988763 0.0 0.0 -3.975693351829396e-16
0.0 0.0 823.7964014800002 29.38547917048624 3.016458020271286 3.550356865608058 0.0 0.0 -1.987846675914698e-16 -0.1760605874124707 -15.098710245872477 -0.5645997265278321 0.05225549160278317 24.18347079242513 -0.3868168872209069 -3.1805546814635168e-15 0.0 0.0 0.0 0.0 -1.987846675914698e-16 0.017459933446141586 1.5173643655851767 0.9479068620645715 -0.9685412083956834 2.5201967508148293e-18 -2.981663508255119e-16 0.0 0.0 -9.93923337957349e-17 -44.26043353955341 5.863321676444406 74.18651728012586 -22.818999894226515 -3.0672374829053974e-15 1.5198796253059024e-14 0.0 0.0 2.6338968455869747e-15 0.0 0.0 -9.93923337957349e-17 -8.56861017946403 -6.21132320490596 -6.443996257563448 0.0 0.0 -9.93923337957349e-17 27.283179032665906 2.905017373038617 -73.65539934759744 33.56748147322525 4.253300817783044e-15 -7.926970216147027e-15 0.0 0.0 0.0 0.0 0.0 -1.987846675914698e-16 -0.14195397528478448 -12.014366081731554 -3.308528371365566 -1.099052599776959 22.64098061289779 0.4844501794499486 -6.896728590703373e-34 -1.987846675914698e-16 -3.975693351829396e-16
0.0 0.0 823.7964014800002 29.299900076203446 2.9259537718610544 3.545589532084558 0.0 0.0 3.975693351829396e-16 -0.16962883071672963 -15.10555451589499 -0.553866459877881 0.04615345537420821 24.351932851162424 -0.41170786964502337 0.0 0.0 3.975693351829396e-16 0.0 0.0 3.975693351829396e-16 0.016677576832268972 1.504851129936226 0.895958361770324 -0.8533418270030593 -1.9655870818591226e-16 -2.9964903213927065e-16 0.0 0.0 1.987846675914698e-16 -44.141190520418206 6.113414915840249 74.37936682570331 -23.058022298251895 2.145415436910169e-15 -1.0517791398843537e-14 0.0 0.0 3.0935863893922494e-15 0.0 0.0 1.987846675914698e-16 -8.62996520519066 -6.36104408638382 -6.340846389286782 0.0 0.0 1.987846675914698e-16 26.878343149151114 2.638040334767473 -73.50699526107515 33.45041521766854 -2.010663860861527e-14 -6.001725866128188e-16 0.0 0.0 1.5902773407317584e-15 0.0 0.0 3.975693351829396e-16 -0.13630376189608612 -11.97665655788249 -3.307632027164337 -1.1158724183656759 22.7650252116879 0.5136596759946515 0.0 0.0 -3.975693351829396e-16
0.0 0.0 823.7964014800002 29.158828782748326 2.7827706747864176 3.5590257135001444 0.0 0.0 -9.93923337957349e-17 -0.1636298983767524 -15.052911179164 -0.586939215862955 0.021936266146290843 24.596472745030287 -0.43600167676676693 0.0 0.0 3.975693351829396e-16 0.0 0.0 -9.93923337957349e-17 0.015633275278541144 1.4567607964223208 0.8736500784455059 -0.744417088867253 -1.9296940387813977e-16 -8.958034776906999e-16 0.0 0.0 -1.987846675914698e-16 -44.4743322778661 6.270671190751316 74.43452939048272 -23.03337407269321 1.5875207768932e-16 -7.791298241888461e-16 0.0 0.0 2.9817700138720468e-15 0.0 0.0 -1.987846675914698e-16 -8.646596347984346 -6.418489026281037 -6.301469613878958 0.0 0.0 -1.987846675914698e-16 26.71980423437276 2.337390435568652 -73.28812434829469 33.23470001207494 -6.0954441179711006e-15 1.8191408224240055e-15 0.0 0.0 3.1805546814635168e-15 0.0 0.0 -9.93923337957349e-17 -0.13102591382858775 -11.889110729826232 -3.3456224156785117 -1.149058558985675 22.91685489434608 0.5640747443321098 0.0 0.0 3.975693351829396e-16
0.0 0.0 823.7964014800002 29.03447632821135 2.7090562582549533 3.5658098555859117 0.0 0.0 2.981770013872047e-16 -0.1612334330608127 -15.221983716835917 -0.6152593523876301 0.0015686082988988048 25.02548542687148 -0.41270134624023697 0.0 0.0 3.9756933518293955e-16 0.0 0.0 2.981770013872047e-16 0.014310745963073124 1.3695316987963548 0.832061783052052 -0.5134641202937636 -1.9833731437934448e-16 -1.0028205129335464e-16 0.0 0.0 -5.963540027744094e-16 -44.201919940237524 6.558777896667571 74.70296428315748 -23.21454813282446 2.799715024481354e-15 -1.3630362494152676e-14 0.0 0.0 -2.2363275104040355e-16 0.0 0.0 -5.963540027744094e-16 -8.686189482449635 -6.619786594502396 -6.184090247045091 0.0 0.0 -5.963540027744094e-16 26.40067433209458 2.0870516711470275 -72.96892982699518 33.457166362739414 -6.0919009804280376e-15 1.8309709915173125e-15 0.0 0.0 -1.5902773407317584e-15 0.0 0.0 2.981770013872047e-16 -0.12720272690730425 -11.855596373197136 -3.4017006265925627 -1.1859522167913126 23.02312065263342 0.5895179162563057 0.0 0.0 -3.9756933518293955e-16
